<svg width="271" height="48" viewBox="0 0 271 48" fill="none" xmlns="http://www.w3.org/2000/svg">
<path d="M25.0782 0C24.0094 0 22.9407 0.553125 22.3875 1.66875L16.2657 14.0812L2.56879 16.0687C0.112545 16.425 -0.87183 19.4531 0.90942 21.1875L10.8188 30.8438L8.47504 44.4844C8.05317 46.9313 10.6313 48.7969 12.825 47.6438L25.0782 41.2125V0Z" fill="#FFC403"/>
<path d="M24.9218 0C25.9906 0 27.0593 0.553125 27.6125 1.66875L33.7343 14.0812L47.4312 16.0687C49.8875 16.425 50.8718 19.4531 49.0906 21.1875L39.1812 30.8438L41.525 44.4844C41.9468 46.9313 39.3687 48.7969 37.175 47.6438L24.9218 41.2125V0Z" fill="#FFC403"/>
<path d="M80.1581 0C79.0894 0 78.0206 0.553125 77.4675 1.66875L71.3456 14.0812L57.6488 16.0687C55.1925 16.425 54.2081 19.4531 55.9894 21.1875L65.8988 30.8438L63.555 44.4844C63.1331 46.9313 65.7113 48.7969 67.905 47.6438L80.1581 41.2125V0Z" fill="#FFC403"/>
<path d="M80.0018 0C81.0705 0 82.1393 0.553125 82.6924 1.66875L88.8143 14.0812L102.511 16.0687C104.967 16.425 105.952 19.4531 104.171 21.1875L94.2612 30.8438L96.6049 44.4844C97.0268 46.9313 94.4487 48.7969 92.2549 47.6438L80.0018 41.2125V0Z" fill="#FFC403"/>
<path d="M135.238 0C134.169 0 133.101 0.553125 132.548 1.66875L126.426 14.0812L112.729 16.0687C110.273 16.425 109.288 19.4531 111.069 21.1875L120.979 30.8438L118.635 44.4844C118.213 46.9313 120.791 48.7969 122.985 47.6438L135.238 41.2125V0Z" fill="#FFC403"/>
<path d="M135.082 0C136.151 0 137.219 0.553125 137.772 1.66875L143.894 14.0812L157.591 16.0687C160.047 16.425 161.032 19.4531 159.251 21.1875L149.341 30.8438L151.685 44.4844C152.107 46.9313 149.529 48.7969 147.335 47.6438L135.082 41.2125V0Z" fill="#FFC403"/>
<path d="M190.318 0C189.249 0 188.181 0.553125 187.628 1.66875L181.506 14.0812L167.809 16.0687C165.353 16.425 164.368 19.4531 166.149 21.1875L176.059 30.8438L173.715 44.4844C173.293 46.9313 175.871 48.7969 178.065 47.6438L190.318 41.2125V0Z" fill="#FFC403"/>
<path d="M190.162 0C191.231 0 192.299 0.553125 192.852 1.66875L198.974 14.0812L212.671 16.0687C215.127 16.425 216.112 19.4531 214.331 21.1875L204.421 30.8438L206.765 44.4844C207.187 46.9313 204.609 48.7969 202.415 47.6438L190.162 41.2125V0Z" fill="#FFC403"/>
<path d="M245.398 0C244.329 0 243.261 0.553125 242.708 1.66875L236.586 14.0812L222.889 16.0687C220.433 16.425 219.448 19.4531 221.229 21.1875L231.139 30.8438L228.795 44.4844C228.373 46.9313 230.951 48.7969 233.145 47.6438L245.398 41.2125V0Z" fill="#FFC403"/>
<path d="M245.242 0C246.311 0 247.379 0.553125 247.933 1.66875L254.054 14.0812L267.751 16.0687C270.208 16.425 271.192 19.4531 269.411 21.1875L259.501 30.8438L261.845 44.4844C262.267 46.9313 259.689 48.7969 257.495 47.6438L245.242 41.2125V0Z" fill="#FFC403"/>
</svg>
